{"title":"Pirates of the Caribean-1 (2003) 1080p Blu-ray x264 En-DTS Fr-AA","uid":15571401,"size":4873222115,"categoryP":"video","categoryS":"hd___movies","magnet":"?xt=urn:btih:2194acf910e613b0605d864c7fd6ab77006e6050&amp;dn=Pirates+of+the+Caribean-1+%282003%29+1080p+Blu-ray+x264+En-DTS+Fr-AA&amp;tr=udp%3A%2F%2Ftracker.leechers-paradise.org%3A6969&amp;tr=udp%3A%2F%2Fzer0day.ch%3A1337&amp;tr=udp%3A%2F%2Fopen.demonii.com%3A1337&amp;tr=udp%3A%2F%2Ftracker.coppersurfer.tk%3A6969&amp;tr=udp%3A%2F%2Fexodus.desync.com%3A6969","seeders":0,"leechers":2,"uploader":"SaM","files":3,"time":1471265099,"description":"- HollyWooD Movie-\r\n\r\nPirates Of The Caribbean\r\nThe Curse of the Black Pearl\r\n** 2003 **\r\nHQ 1080p / Blu-ray Rip / x264\r\nEnglish DTS 5.1\r\nFrench AAC 5.1\r\n\r\nEnglish H.I &amp; French subs\r\n \nhttp://extraimago.com/image/w7mD \nhttp://extraimago.com/image/w7m5 \nhttp://extraimago.com/image/w7mg \nhttp://extraimago.com/image/w7mX \nhttp://extraimago.com/image/w7mP \nhttp://extraimago.com/image/w7mG \nhttp://extraimago.com/image/w7mr \nhttp://extraimago.com/image/w7mp \nhttp://extraimago.com/image/w7mY \nhttp://extraimago.com/image/w7mC \nhttp://extraimago.com/image/w7mB \nhttp://extraimago.com/image/w7m4 \nhttp://extraimago.com/image/w7me \nhttp://extraimago.com/image/w7mZ\r\n\r\nSource : Fr BD50 @ DDR + Raw PCM 5.1 Hindi Audio\r\nFormat : Matroska\r\nFile size : 4.50 GiB\r\nDuration : 2h 23mn\r\nOverall bit rate : 4 495 Kbps\r\n\r\n\r\n[B]Video\r\nFormat : AVC\r\nFormat/Info : Advanced Video Codec\r\nFormat profile :   \r\nFormat settings, CABAC : Yes\r\nFormat settings, ReFrames : 5 frames\r\nCodec ID : V_MPEG4/ISO/AVC\r\nDuration : 2h 23mn\r\nBit rate : 15.1 Mbps\r\nWidth : 1 920 pixels\r\nHeight : 800 pixels\r\nDisplay aspect ratio : 2.40:1\r\nFrame rate mode : Constant\r\nFrame rate : 23.976 (24000/1001) fps\r\ncolor space : YUV\r\nChroma subsampling : 4:2:0\r\nBit depth : 8 bits\r\nScan type : Progressive\r\nBits/(Pixel*Frame) : 0.410\r\nStream size : 2.79 GiB (62%)\r\n\r\nAudio\r\nFormat : DTS\r\nFormat/Info : Digital Theater Systems\r\nMode : 16\r\nFormat settings, Endianness : Big\r\nCodec ID : A_DTS\r\nDuration : 2h 23mn\r\nBit rate mode : Constant\r\nBit rate : 1 509 Kbps\r\nChannel(s) : 6 channels\r\nChannel positions : Front: L C R, Side: L R, LFE\r\nSampling rate : 48.0 KHz\r\nFrame rate : 93.750 fps (512 spf)\r\nBit depth : 24 bits\r\nCompression mode : Lossy\r\nStream size : 1.51 GiB (34%)\r\nLanguage : English\r\nDefault : Yes\r\nForced : No\r\n\r\nAudio #2\r\nID : 3\r\nFormat : AAC\r\nFormat/Info : Advanced Audio Codec\r\nFormat profile : LC\r\nCodec ID : A_AAC\r\nDuration : 2h 23mn\r\nBit rate : 192 Kbps\r\nChannel(s) : 6 channels\r\nChannel positions : Front: L C R, Side: L R, LFE\r\nSampling rate : 48.0 KHz\r\nFrame rate : 46.875 fps (1024 spf)\r\nCompression mode : Lossy\r\nDelay relative to video : 9ms\r\nStream size : 196 MiB (4%)\r\nLanguage : French\r\nDefault : No\r\nForced : No\r\nText #1\r\nID : 4\r\nFormat : VobSub\r\nMuxing mode : zlib\r\nCodec ID : S_VOBSUB\r\nCodec ID/Info : Picture based subtitle format used on DVDs\r\nDuration : 2h 22mn\r\nBit rate : 3 782 bps\r\nCount of elements : 1918\r\nStream size : 3.86 MiB (0%)\r\nLanguage : English\r\nDefault : Yes\r\nForced : No\r\n\r\nText #2\r\nID : 5\r\nFormat : VobSub\r\nMuxing mode : zlib\r\nCodec ID : S_VOBSUB\r\nCodec ID/Info : Picture based subtitle format used on DVDs\r\nDuration : 2h 23mn\r\nBit rate : 3 369 bps\r\nCount of elements : 1427\r\nStream size : 3.45 MiB (0%)\r\nLanguage : French\r\nDefault : No\r\nForced : No\r\n\r\nChapters = YES\r\nSample : Included","torrent":{"xt":"urn:btih:2194acf910e613b0605d864c7fd6ab77006e6050","amp;dn":"Pirates+of+the+Caribean-1+%282003%29+1080p+Blu-ray+x264+En-DTS+Fr-AA","amp;tr":["udp%3A%2F%2Ftracker.leechers-paradise.org%3A6969","udp%3A%2F%2Fzer0day.ch%3A1337","udp%3A%2F%2Fopen.demonii.com%3A1337","udp%3A%2F%2Ftracker.coppersurfer.tk%3A6969","udp%3A%2F%2Fexodus.desync.com%3A6969"],"infoHash":"2194acf910e613b0605d864c7fd6ab77006e6050","infoHashBuffer":{"type":"Buffer","data":[33,148,172,249,16,230,19,176,96,93,134,76,127,214,171,119,0,110,96,80]},"announce":[],"urlList":[]}}